<svg xmlns="http://www.w3.org/2000/svg" width="71.891" height="77.696" viewBox="0 0 71.891 77.696"><defs><style>.a{fill:#edd3d4;}.b{fill:#fff;}.c{fill:#7d2d2a;}</style></defs><g transform="translate(-201.279 2506.432)"><path class="a" d="M237.635,73.4v60.4a2.884,2.884,0,0,1-2.883,2.883H192.463a2.884,2.884,0,0,1-2.883-2.883V73.4a2.884,2.884,0,0,1,2.883-2.883h42.289A2.884,2.884,0,0,1,237.635,73.4Z" transform="translate(34.573 -2575.989)"/><path class="b" d="M189.58,375.87v4.557a2.884,2.884,0,0,0,2.883,2.883h42.289a2.884,2.884,0,0,0,2.883-2.883V375.87Z" transform="translate(34.573 -2822.614)"/><path class="b" d="M200.07,70.516v66.168h-7.609a2.885,2.885,0,0,1-2.884-2.884V73.4a2.886,2.886,0,0,1,2.884-2.884Z" transform="translate(34.575 -2575.987)"/><path class="b" d="M237.635,79.778V73.4a2.883,2.883,0,0,0-2.883-2.883H192.463A2.883,2.883,0,0,0,189.58,73.4v6.376Z" transform="translate(34.573 -2575.989)"/><g transform="translate(239.332 -2481.265)"><path class="c" d="M302.54,231.235h-3.026a.991.991,0,0,0-1,.869.963.963,0,0,0,.959,1.058h3.068a.963.963,0,0,0,0-1.927Z" transform="translate(-292.738 -224.53)"/><path class="c" d="M345.641,231.235h-7.2a.963.963,0,1,0,0,1.926h7.238a.964.964,0,0,0,.959-1.058A.991.991,0,0,0,345.641,231.235Z" transform="translate(-324.215 -224.53)"/><path class="c" d="M309.467,252.205h-9.952a.991.991,0,0,0-1,.869.963.963,0,0,0,.959,1.058h9.993a.963.963,0,0,0,0-1.927Z" transform="translate(-292.739 -241.467)"/><path class="c" d="M380.5,252.205h-6.043a.963.963,0,0,0,0,1.926h6.084a.963.963,0,0,0,.959-1.058A.991.991,0,0,0,380.5,252.205Z" transform="translate(-353.298 -241.467)"/><path class="c" d="M306.58,273.174h-7.066a.991.991,0,0,0-1,.869.963.963,0,0,0,.959,1.058h7.108a.963.963,0,1,0,0-1.927Z" transform="translate(-292.738 -258.404)"/><path class="c" d="M362.607,273.174H359.45a.963.963,0,1,0,0,1.926h3.2a.963.963,0,0,0,.959-1.058.992.992,0,0,0-1-.868Z" transform="translate(-341.181 -258.403)"/><path class="c" d="M356.26,294.145H344.446a.963.963,0,0,0,0,1.926H356.3a.963.963,0,0,0,.959-1.058A.991.991,0,0,0,356.26,294.145Z" transform="translate(-329.062 -275.341)"/><path class="c" d="M303.695,294.145h-4.181a.991.991,0,0,0-1,.869.963.963,0,0,0,.959,1.058h4.222a.963.963,0,0,0,0-1.927Z" transform="translate(-292.738 -275.341)"/><path class="c" d="M272.725,196.374h-3.219a.991.991,0,0,0-1,.869.963.963,0,0,0,.959,1.058h3.26a.963.963,0,1,0,0-1.927Z" transform="translate(-268.501 -196.374)"/><path class="c" d="M323.289,196.374H310.769a.963.963,0,1,0,0,1.926H323.33a.963.963,0,0,0,.959-1.058A.991.991,0,0,0,323.289,196.374Z" transform="translate(-301.862 -196.374)"/><path class="c" d="M272.725,331.976h-3.219a.991.991,0,0,0-1,.869.963.963,0,0,0,.959,1.058h3.26a.963.963,0,1,0,0-1.927Z" transform="translate(-268.501 -305.896)"/><path class="c" d="M323.289,331.976H310.769a.963.963,0,1,0,0,1.927H323.33a.963.963,0,0,0,.959-1.058A.991.991,0,0,0,323.289,331.976Z" transform="translate(-301.862 -305.896)"/></g><path class="b" d="M125.049,184.21H104.2a1.447,1.447,0,0,1-1.447-1.447V169.19a1.447,1.447,0,0,1,1.447-1.447h20.85a1.447,1.447,0,0,1,1.447,1.447v13.572A1.447,1.447,0,0,1,125.049,184.21Z" transform="translate(104.702 -2654.515)"/><path class="c" d="M127.324,200.065a.959.959,0,0,1-.68-.282l-2.316-2.316a.962.962,0,0,1,0-1.361l2.316-2.316A.962.962,0,1,1,128,195.152l-1.635,1.635L128,198.422a.962.962,0,0,1-.68,1.643Z" transform="translate(87.503 -2675.325)"/><path class="c" d="M183.833,193.51a.959.959,0,0,1,.68.282l2.316,2.316a.962.962,0,0,1,0,1.361l-2.316,2.316a.962.962,0,0,1-1.361-1.361l1.635-1.635-1.635-1.635a.962.962,0,0,1,.68-1.642Z" transform="translate(39.992 -2675.326)"/><path class="c" d="M153.641,200.066a.962.962,0,0,1-.837-1.435L155.42,194a.962.962,0,1,1,1.675.946l-2.615,4.631a.962.962,0,0,1-.839.489Z" transform="translate(64.376 -2675.326)"/><path class="b" d="M125.042,392.916H77.571a1.924,1.924,0,0,1-1.924-1.924v-13.2a1.924,1.924,0,0,1,1.924-1.924h47.471a1.924,1.924,0,0,1,1.924,1.924v13.2A1.924,1.924,0,0,1,125.042,392.916Z" transform="translate(126.594 -2822.614)"/><g transform="translate(201.279 -2506.432)"><path class="c" d="M223.6,89.519a.962.962,0,0,0-.962.962v.028a.962.962,0,1,0,1.923,0v-.028A.962.962,0,0,0,223.6,89.519Z" transform="translate(-193.409 -84.903)"/><path class="c" d="M242.918,89.519a.962.962,0,0,0-.962.962v.028a.962.962,0,0,0,1.923,0v-.028A.962.962,0,0,0,242.918,89.519Z" transform="translate(-209.009 -84.903)"/><path class="c" d="M262.232,89.519a.962.962,0,0,0-.962.962v.028a.962.962,0,0,0,1.923,0v-.028A.962.962,0,0,0,262.232,89.519Z" transform="translate(-224.609 -84.903)"/><path class="c" d="M138.693,65.518H96.4a3.849,3.849,0,0,0-3.845,3.845V79.883a.962.962,0,0,0,1.923,0V76.7h46.132v53.063a1.924,1.924,0,0,1-1.922,1.922h-14.8V127.13A2.889,2.889,0,0,0,121,124.244H98.819a.962.962,0,0,0,0,1.923H121a.963.963,0,0,1,.962.962v13.2a.963.963,0,0,1-.962.962H73.532a.963.963,0,0,1-.962-.962v-13.2a.963.963,0,0,1,.962-.962H93.521a.962.962,0,0,0,.962-.962v-22.6h4.636a2.411,2.411,0,0,0,2.409-2.409V86.626a2.411,2.411,0,0,0-2.409-2.409H78.269a2.412,2.412,0,0,0-2.409,2.409V92.45h-.981a4.237,4.237,0,0,0-4.232,4.232v6.266a4.237,4.237,0,0,0,4.232,4.232h7.686a2.32,2.32,0,0,1,0,4.64H74.879a4.232,4.232,0,1,0,0,8.464h7.335a2.311,2.311,0,0,1,2.309,2.309v1.652H73.532a2.889,2.889,0,0,0-2.885,2.885v13.2a2.889,2.889,0,0,0,2.885,2.885H121a2.889,2.889,0,0,0,2.885-2.885v-6.72h14.8a3.849,3.849,0,0,0,3.845-3.845v-60.4a3.849,3.849,0,0,0-3.845-3.845ZM77.783,86.626a.486.486,0,0,1,.486-.485h20.85a.486.486,0,0,1,.485.485V100.2a.486.486,0,0,1-.485.485H78.269a.486.486,0,0,1-.486-.485Zm4.431,31.735H74.879a2.309,2.309,0,1,1,0-4.618h7.686a4.243,4.243,0,1,0,0-8.486H74.879a2.311,2.311,0,0,1-2.309-2.309V96.682a2.311,2.311,0,0,1,2.309-2.309h.981V100.2a2.412,2.412,0,0,0,2.409,2.409h14.29v21.638H86.447v-1.652A4.237,4.237,0,0,0,82.215,118.361ZM94.482,74.778V69.363A1.924,1.924,0,0,1,96.4,67.441h42.289a1.924,1.924,0,0,1,1.922,1.922v5.415Z" transform="translate(-70.647 -65.518)"/><path class="c" d="M216.753,287.89a.962.962,0,1,0-1.923,0v.028a.962.962,0,0,0,1.923,0Z" transform="translate(-187.1 -244.345)"/><path class="c" d="M215.792,332.273a.962.962,0,0,0-.962.962v.028a.962.962,0,0,0,1.923,0v-.028A.962.962,0,0,0,215.792,332.273Z" transform="translate(-187.1 -280.97)"/><path class="c" d="M95.708,396.788a.962.962,0,0,0-1.923,0v.022a.962.962,0,1,0,1.923,0Z" transform="translate(-89.335 -332.3)"/><path class="c" d="M120.214,396.788a.962.962,0,0,0-1.923,0v.022a.962.962,0,1,0,1.923,0Z" transform="translate(-109.128 -332.3)"/><path class="c" d="M143.76,397.771a.962.962,0,0,0,.962-.962v-.022a.962.962,0,1,0-1.923,0v.022A.962.962,0,0,0,143.76,397.771Z" transform="translate(-128.922 -332.3)"/><path class="c" d="M169.228,396.81v-.022a.962.962,0,1,0-1.923,0v.022a.962.962,0,0,0,1.923,0Z" transform="translate(-148.715 -332.3)"/><path class="c" d="M193.734,396.81v-.022a.962.962,0,1,0-1.923,0v.022a.962.962,0,0,0,1.923,0Z" transform="translate(-168.508 -332.3)"/><path class="c" d="M218.241,396.81v-.022a.962.962,0,1,0-1.923,0v.022a.962.962,0,0,0,1.923,0Z" transform="translate(-188.302 -332.3)"/><path class="c" d="M242.748,396.81v-.022a.962.962,0,1,0-1.923,0v.022a.962.962,0,0,0,1.923,0Z" transform="translate(-208.096 -332.3)"/><path class="c" d="M266.293,397.771a.961.961,0,0,0,.962-.962v-.022a.962.962,0,1,0-1.923,0v.022A.961.961,0,0,0,266.293,397.771Z" transform="translate(-227.889 -332.3)"/><path class="c" d="M290.8,397.771a.961.961,0,0,0,.962-.962v-.022a.962.962,0,1,0-1.923,0v.022A.961.961,0,0,0,290.8,397.771Z" transform="translate(-247.682 -332.3)"/><path class="c" d="M315.307,397.771a.961.961,0,0,0,.962-.962v-.022a.962.962,0,1,0-1.923,0v.022A.961.961,0,0,0,315.307,397.771Z" transform="translate(-267.476 -332.3)"/><path class="c" d="M106.038,416.09v.022a.962.962,0,1,0,1.923,0v-.022a.962.962,0,0,0-1.923,0Z" transform="translate(-99.231 -347.889)"/><path class="c" d="M130.545,416.09v.022a.962.962,0,1,0,1.923,0v-.022a.962.962,0,0,0-1.923,0Z" transform="translate(-119.025 -347.889)"/><path class="c" d="M156.975,416.112v-.022a.962.962,0,0,0-1.923,0v.022a.962.962,0,1,0,1.923,0Z" transform="translate(-138.819 -347.889)"/><path class="c" d="M181.481,416.112v-.022a.962.962,0,0,0-1.923,0v.022a.962.962,0,1,0,1.923,0Z" transform="translate(-158.612 -347.889)"/><path class="c" d="M205.027,415.128a.962.962,0,0,0-.962.962v.022a.962.962,0,1,0,1.923,0v-.022A.962.962,0,0,0,205.027,415.128Z" transform="translate(-178.405 -347.889)"/><path class="c" d="M230.5,416.112v-.022a.962.962,0,0,0-1.923,0v.022a.962.962,0,1,0,1.923,0Z" transform="translate(-198.199 -347.889)"/><path class="c" d="M255,416.112v-.022a.962.962,0,0,0-1.923,0v.022a.962.962,0,1,0,1.923,0Z" transform="translate(-217.992 -347.889)"/><path class="c" d="M279.508,416.112v-.022a.962.962,0,0,0-1.923,0v.022a.962.962,0,1,0,1.923,0Z" transform="translate(-237.786 -347.889)"/><path class="c" d="M304.015,416.112v-.022a.962.962,0,0,0-1.923,0v.022a.962.962,0,1,0,1.923,0Z" transform="translate(-257.579 -347.889)"/><path class="c" d="M94.747,434.429a.962.962,0,0,0-.962.962v.022a.962.962,0,0,0,1.923,0v-.022A.962.962,0,0,0,94.747,434.429Z" transform="translate(-89.335 -363.478)"/><path class="c" d="M119.253,434.429a.962.962,0,0,0-.962.962v.022a.962.962,0,0,0,1.923,0v-.022A.962.962,0,0,0,119.253,434.429Z" transform="translate(-109.128 -363.478)"/><path class="c" d="M142.8,435.506a.962.962,0,0,0,.962.962h18.853a.962.962,0,0,0,0-1.923H143.76A.962.962,0,0,0,142.8,435.506Z" transform="translate(-128.922 -363.571)"/><path class="c" d="M265.331,435.413a.962.962,0,1,0,1.923,0v-.022a.962.962,0,0,0-1.923,0Z" transform="translate(-227.889 -363.478)"/><path class="c" d="M289.838,435.413a.962.962,0,1,0,1.923,0v-.022a.962.962,0,0,0-1.923,0Z" transform="translate(-247.682 -363.478)"/><path class="c" d="M314.345,435.413a.962.962,0,1,0,1.923,0v-.022a.962.962,0,0,0-1.923,0Z" transform="translate(-267.476 -363.478)"/><path class="c" d="M241.956,370.871h37.657v1.923H241.956Z" transform="translate(-209.009 -312.144)"/></g></g></svg>