<svg xmlns="http://www.w3.org/2000/svg" width="83.773" height="77.696" viewBox="0 0 83.773 77.696"><defs><style>.a{fill:#fff;}.b{fill:#ecd2d3;}.c{fill:#7d2d2a;}.d{fill:#793031;}</style></defs><path class="a" d="M133.81,143.752a18.437,18.437,0,0,0-20.277-15.447,20.446,20.446,0,0,0-40.784,0,18.437,18.437,0,0,0-4.937,36.533c9.962,1.571,40.7,1.572,50.659,0a18.437,18.437,0,0,0,15.338-21.086Z" transform="translate(-51.254 -101.109)"/><path class="b" d="M190.542,253.1V280.03c-10.948,1.087-33.821,1.087-44.771,0V253.1a.594.594,0,0,1,.594-.594h43.583A.594.594,0,0,1,190.542,253.1Z" transform="translate(-126.269 -215.936)"/><path class="a" d="M210.656,205.466h-5.512v-32.53a1.98,1.98,0,0,0-1.979-1.979H193.9a1.98,1.98,0,0,0-1.979,1.979v32.53H186.4a2.759,2.759,0,0,0-2.211,4.41l12.126,16.246a2.759,2.759,0,0,0,4.422,0l12.126-16.246a2.759,2.759,0,0,0-2.211-4.409Z" transform="translate(-156.643 -150.525)"/><path class="a" d="M107.914,89.665H86.463a1.489,1.489,0,0,1-1.489-1.489V74.213a1.489,1.489,0,0,1,1.489-1.489h21.451a1.489,1.489,0,0,1,1.489,1.489V88.176A1.489,1.489,0,0,1,107.914,89.665Z" transform="translate(-77.505 -71.734)"/><g transform="translate(11.682 6.088)"><path class="c" d="M109.636,105.228a.986.986,0,0,1-.7-.29l-2.382-2.382a.99.99,0,0,1,0-1.4l2.382-2.382a.99.99,0,1,1,1.4,1.4l-1.683,1.683,1.683,1.683a.99.99,0,0,1-.7,1.69Z" transform="translate(-106.263 -98.483)"/><path class="c" d="M166.062,98.483a.986.986,0,0,1,.7.29l2.382,2.382a.99.99,0,0,1,0,1.4l-2.382,2.382a.99.99,0,0,1-1.4-1.4l1.683-1.683-1.683-1.683a.99.99,0,0,1,.7-1.69Z" transform="translate(-153.433 -98.483)"/><path class="c" d="M135.876,105.227a.99.99,0,0,1-.861-1.477l2.691-4.765a.99.99,0,1,1,1.724.973l-2.691,4.765A.989.989,0,0,1,135.876,105.227Z" transform="translate(-129.222 -98.482)"/></g><path class="a" d="M401.493,379.643h-11.1a1.98,1.98,0,0,1-1.979-1.979V368.2a1.98,1.98,0,0,1,1.979-1.979h11.1a1.98,1.98,0,0,1,1.979,1.979v9.46A1.98,1.98,0,0,1,401.493,379.643Z" transform="translate(-320.886 -307.144)"/><ellipse class="a" cx="4.596" cy="4.596" rx="4.596" ry="4.596" transform="translate(27.941 62.417)"/><ellipse class="a" cx="4.596" cy="4.596" rx="4.596" ry="4.596" transform="translate(66.06 15.459) rotate(-22.823)"/><path class="c" d="M127.846,125.815h-1.453A19.427,19.427,0,0,0,110.41,93.85a21.268,21.268,0,0,0-4.593-10.891.99.99,0,1,0-1.54,1.243,19.3,19.3,0,0,1,4.254,10.79.989.989,0,0,0,1.1.912,17.446,17.446,0,0,1,14.049,29.91h-6.934a2.972,2.972,0,0,0-2.969,2.969v1.77c-2.757.393-6.984.7-12.334.884l2.815-3.771a3.749,3.749,0,0,0-3-5.991H96.73V90.136a2.972,2.972,0,0,0-2.969-2.969h-9.27a2.972,2.972,0,0,0-2.969,2.969V104.7a.99.99,0,0,0,1.979,0V90.136a.991.991,0,0,1,.99-.99h9.27a.991.991,0,0,1,.99.99v32.53a.989.989,0,0,0,.99.99h5.512a1.769,1.769,0,0,1,1.418,2.828L90.544,142.73a1.769,1.769,0,0,1-2.836,0l-3.465-4.642a5.584,5.584,0,0,0-6.409-8.587l-2.252-3.017A1.77,1.77,0,0,1,77,123.655h5.512a.99.99,0,0,0,.99-.99V110.151a.99.99,0,1,0-1.979,0v11.525H77a3.749,3.749,0,0,0-3,5.991l2.127,2.85a5.63,5.63,0,0,0-.809.864,110.379,110.379,0,0,1-11.363-.9,17.455,17.455,0,0,1-11.736-27.013,5.586,5.586,0,0,0,7.9-6.393A17.423,17.423,0,0,1,68.621,95.9a.989.989,0,0,0,1.1-.912A19.468,19.468,0,0,1,72.3,86.644h5.352a2.481,2.481,0,0,0,2.479-2.479V79.156a19.465,19.465,0,0,1,20.384,1.473.99.99,0,1,0,1.16-1.6,21.272,21.272,0,0,0-12.545-4.053,21.506,21.506,0,0,0-9,1.977V70.2a2.481,2.481,0,0,0-2.479-2.479H56.2A2.481,2.481,0,0,0,53.718,70.2V84.166A2.481,2.481,0,0,0,56.2,86.645H70.042a21.494,21.494,0,0,0-2.2,7.206,19.4,19.4,0,0,0-8.556,1.422,5.583,5.583,0,1,0-8.657,7.005,19.43,19.43,0,0,0,13.014,30.154,106.43,106.43,0,0,0,10.729.889,5.582,5.582,0,0,0,8.411,6.119l3.338,4.473a3.749,3.749,0,0,0,6.009,0l7.8-10.455c.023,0,.045.007.068.007h.03c4.215-.127,9.88-.388,13.743-.913v5.692a2.972,2.972,0,0,0,2.969,2.969h11.1a2.972,2.972,0,0,0,2.969-2.969v-9.46a2.972,2.972,0,0,0-2.969-2.969ZM55.7,84.166V70.2a.5.5,0,0,1,.5-.5H77.647a.5.5,0,0,1,.5.5V84.166a.5.5,0,0,1-.5.5H56.2A.5.5,0,0,1,55.7,84.166Zm-.99,10.695A3.606,3.606,0,1,1,51.1,98.467a3.611,3.611,0,0,1,3.607-3.606Zm21.462,39.877a3.606,3.606,0,1,1,3.606,3.607A3.611,3.611,0,0,1,76.169,134.738Zm52.666,3.506a.991.991,0,0,1-.99.99h-11.1a.991.991,0,0,1-.99-.99v-9.46a.991.991,0,0,1,.99-.99h11.1a.991.991,0,0,1,.99.99Z" transform="translate(-47.238 -67.724)"/><path class="d" d="M388.645,141.048a5.586,5.586,0,1,0-5.586-5.586A5.592,5.592,0,0,0,388.645,141.048Zm0-9.192a3.607,3.607,0,1,1-3.606,3.607A3.611,3.611,0,0,1,388.645,131.855Z" transform="translate(-316.592 -117.575)"/></svg>