<svg xmlns="http://www.w3.org/2000/svg" width="100.527" height="95.703" viewBox="0 0 100.527 95.703"><defs><style>.a{fill:#fff;}.b{fill:#ecd2d3;}.c{fill:#7d2d2a;}</style></defs><g transform="translate(-597.571 2410.876)"><g transform="translate(597.571 -2410.876)"><path class="a" d="M251.155,212.644l-6.27-1.785a24.986,24.986,0,0,0-2.9-7.006l3.173-5.7a1.244,1.244,0,0,0-.207-1.483l-4.286-4.286a1.244,1.244,0,0,0-1.483-.207l-5.7,3.173a24.986,24.986,0,0,0-7.006-2.9l-1.785-6.27a1.242,1.242,0,0,0-1.2-.9h-6.06a1.242,1.242,0,0,0-1.2.9l-1.785,6.27a24.987,24.987,0,0,0-7.006,2.9l-5.7-3.173a1.244,1.244,0,0,0-1.483.207l-4.286,4.286a1.244,1.244,0,0,0-.207,1.483l3.173,5.7a24.985,24.985,0,0,0-2.9,7.006l-6.27,1.785a1.242,1.242,0,0,0-.9,1.2v6.06a1.242,1.242,0,0,0,.9,1.2l6.27,1.785a24.987,24.987,0,0,0,2.9,7.006l-3.173,5.7a1.244,1.244,0,0,0,.207,1.483l4.286,4.286a1.244,1.244,0,0,0,1.483.207l5.7-3.173a24.984,24.984,0,0,0,7.006,2.9l1.785,6.27a1.242,1.242,0,0,0,1.2.9h6.06a1.242,1.242,0,0,0,1.2-.9l1.785-6.27a24.986,24.986,0,0,0,7.006-2.9l5.7,3.173a1.244,1.244,0,0,0,1.483-.207l4.286-4.286a1.244,1.244,0,0,0,.207-1.483l-3.173-5.7a24.986,24.986,0,0,0,2.9-7.006l6.27-1.785a1.242,1.242,0,0,0,.9-1.2v-6.06A1.242,1.242,0,0,0,251.155,212.644Zm-30.693,19.778a15.553,15.553,0,1,1,15.553-15.553,15.554,15.554,0,0,1-15.553,15.553Z" transform="translate(-152.57 -153.802)"/><path class="b" d="M53.04,214.5l-3.386-.964a13.493,13.493,0,0,0-1.568-3.783L49.8,206.68a.672.672,0,0,0-.112-.8l-2.314-2.314a.672.672,0,0,0-.8-.112L43.5,205.166a13.494,13.494,0,0,0-3.783-1.568l-.964-3.386a.671.671,0,0,0-.646-.487H34.831a.671.671,0,0,0-.646.487l-.964,3.386a13.494,13.494,0,0,0-3.783,1.568l-3.077-1.713a.672.672,0,0,0-.8.112l-2.314,2.314a.672.672,0,0,0-.112.8l1.713,3.077a13.493,13.493,0,0,0-1.568,3.783l-3.386.964a.671.671,0,0,0-.487.646v3.272a.671.671,0,0,0,.487.646l3.386.964a13.493,13.493,0,0,0,1.568,3.783l-1.713,3.077a.672.672,0,0,0,.112.8l2.314,2.314a.672.672,0,0,0,.8.112l3.077-1.713a13.493,13.493,0,0,0,3.783,1.568l.964,3.386a.671.671,0,0,0,.646.487H38.1a.671.671,0,0,0,.646-.487l.964-3.386a13.493,13.493,0,0,0,3.783-1.568l3.077,1.713a.672.672,0,0,0,.8-.112l2.314-2.314a.672.672,0,0,0,.112-.8l-1.713-3.077a13.491,13.491,0,0,0,1.568-3.783l3.386-.964a.671.671,0,0,0,.487-.646v-3.272a.671.671,0,0,0-.487-.646Zm-16.573,7.648a5.366,5.366,0,1,1,5.366-5.366A5.367,5.367,0,0,1,36.467,222.152Z" transform="translate(-18.365 -165.246)"/><path class="a" d="M152.624,54.915l-3.646-1.038A14.529,14.529,0,0,0,147.29,49.8l1.845-3.314a.724.724,0,0,0-.121-.862l-2.492-2.492a.724.724,0,0,0-.862-.121l-3.314,1.845a14.53,14.53,0,0,0-4.074-1.688l-1.038-3.646a.723.723,0,0,0-.7-.525h-3.524a.723.723,0,0,0-.7.525l-1.038,3.646a14.53,14.53,0,0,0-4.074,1.688l-3.314-1.845a.724.724,0,0,0-.862.121l-2.492,2.492a.724.724,0,0,0-.121.862l1.845,3.314a14.529,14.529,0,0,0-1.688,4.074l-3.646,1.038a.723.723,0,0,0-.525.7v3.524a.723.723,0,0,0,.525.7l3.646,1.038a14.53,14.53,0,0,0,1.688,4.074l-1.845,3.314a.724.724,0,0,0,.121.862l2.492,2.492a.724.724,0,0,0,.862.121l3.314-1.845a14.524,14.524,0,0,0,4.074,1.688l1.038,3.646a.723.723,0,0,0,.7.525h3.524a.723.723,0,0,0,.7-.525l1.038-3.646a14.53,14.53,0,0,0,4.074-1.688l3.314,1.845a.724.724,0,0,0,.862-.121l2.492-2.492a.724.724,0,0,0,.121-.862l-1.845-3.314a14.53,14.53,0,0,0,1.688-4.074l3.646-1.038a.723.723,0,0,0,.525-.7V55.611a.723.723,0,0,0-.525-.7Zm-17.848,9.6a7.147,7.147,0,1,1,7.147-7.147A7.147,7.147,0,0,1,134.776,64.519Z" transform="translate(-95.183 -37.96)"/><path class="c" d="M219.533,245.544h-6.06a2.293,2.293,0,0,1-2.2-1.658l-1.622-5.7a25.993,25.993,0,0,1-6.184-2.563l-5.177,2.882a2.294,2.294,0,0,1-2.724-.381l-4.286-4.286a2.294,2.294,0,0,1-.381-2.723l2.883-5.178a25.985,25.985,0,0,1-2.563-6.184l-5.7-1.622a2.293,2.293,0,0,1-1.658-2.2v-6.06a2.293,2.293,0,0,1,1.658-2.2l5.7-1.622a25.994,25.994,0,0,1,2.563-6.184L190.9,194.7a2.294,2.294,0,0,1,.381-2.724l4.286-4.286a2.293,2.293,0,0,1,2.723-.381l5.178,2.883a25.993,25.993,0,0,1,6.184-2.563l1.622-5.7a2.293,2.293,0,0,1,2.2-1.658h6.06a2.293,2.293,0,0,1,2.2,1.658l1.622,5.7a26,26,0,0,1,6.184,2.563l5.177-2.882a2.294,2.294,0,0,1,2.724.381l4.286,4.286a2.294,2.294,0,0,1,.381,2.723l-2.883,5.178a25.988,25.988,0,0,1,2.563,6.184l5.7,1.622h0a2.293,2.293,0,0,1,1.658,2.2v6.06a2.293,2.293,0,0,1-1.658,2.2l-5.7,1.622a26,26,0,0,1-2.563,6.184l2.882,5.177a2.294,2.294,0,0,1-.381,2.724l-4.286,4.286a2.293,2.293,0,0,1-2.723.381l-5.178-2.883a25.993,25.993,0,0,1-6.184,2.563l-1.622,5.7a2.294,2.294,0,0,1-2.2,1.658Zm-16.047-12.157a1.039,1.039,0,0,1,.539.151,23.919,23.919,0,0,0,6.714,2.783,1.04,1.04,0,0,1,.753.725l1.786,6.27a.2.2,0,0,0,.2.147h6.06a.2.2,0,0,0,.2-.147l1.785-6.27a1.04,1.04,0,0,1,.753-.725,23.917,23.917,0,0,0,6.714-2.783,1.04,1.04,0,0,1,1.045-.019l5.7,3.173a.2.2,0,0,0,.241-.034l4.286-4.286a.2.2,0,0,0,.034-.242l-3.172-5.7a1.041,1.041,0,0,1,.019-1.045,23.923,23.923,0,0,0,2.783-6.714,1.04,1.04,0,0,1,.725-.753l6.27-1.786a.2.2,0,0,0,.147-.2v-6.06a.2.2,0,0,0-.147-.2l-6.27-1.785a1.04,1.04,0,0,1-.725-.753,23.927,23.927,0,0,0-2.783-6.714,1.04,1.04,0,0,1-.02-1.045l3.173-5.7a.2.2,0,0,0-.034-.241l-4.286-4.286a.2.2,0,0,0-.242-.033l-5.7,3.172a1.04,1.04,0,0,1-1.045-.02,23.931,23.931,0,0,0-6.714-2.783,1.04,1.04,0,0,1-.753-.725l-1.785-6.27a.2.2,0,0,0-.2-.147h-6.06a.2.2,0,0,0-.2.147l-1.786,6.27a1.04,1.04,0,0,1-.753.725,23.917,23.917,0,0,0-6.714,2.783,1.04,1.04,0,0,1-1.045.02l-5.7-3.173a.2.2,0,0,0-.241.034l-4.286,4.286a.2.2,0,0,0-.034.242l3.172,5.7a1.041,1.041,0,0,1-.019,1.045,23.916,23.916,0,0,0-2.783,6.714,1.041,1.041,0,0,1-.725.753l-6.27,1.785a.2.2,0,0,0-.147.2v6.06a.2.2,0,0,0,.147.2l6.27,1.786a1.04,1.04,0,0,1,.725.753,23.92,23.92,0,0,0,2.783,6.714,1.04,1.04,0,0,1,.019,1.045l-3.173,5.7a.2.2,0,0,0,.034.241l4.286,4.286a.2.2,0,0,0,.242.034l5.7-3.172A1.038,1.038,0,0,1,203.486,233.387ZM216.5,229.5a16.591,16.591,0,0,1-13.833-25.755A1.04,1.04,0,1,1,204.4,204.9a14.533,14.533,0,1,0,3.719-3.833,1.04,1.04,0,0,1-1.2-1.7A16.592,16.592,0,1,1,216.5,229.5Z" transform="translate(-148.611 -149.841)"/><path class="c" d="M34.142,230.924H30.87a1.719,1.719,0,0,1-1.646-1.243l-.8-2.819a14.525,14.525,0,0,1-2.953-1.224l-2.562,1.426a1.72,1.72,0,0,1-2.042-.285l-2.314-2.314a1.719,1.719,0,0,1-.286-2.041l1.427-2.563a14.51,14.51,0,0,1-1.224-2.953l-2.819-.8a1.718,1.718,0,0,1-1.243-1.646v-3.272a1.719,1.719,0,0,1,1.243-1.646l2.819-.8a14.512,14.512,0,0,1,1.224-2.953l-1.426-2.562a1.719,1.719,0,0,1,.285-2.042l2.314-2.314a1.72,1.72,0,0,1,2.041-.286l2.563,1.427a14.508,14.508,0,0,1,2.953-1.224l.8-2.819a1.719,1.719,0,0,1,1.646-1.243h3.272a1.719,1.719,0,0,1,1.646,1.243l.8,2.818a14.524,14.524,0,0,1,2.953,1.224l2.562-1.426a1.72,1.72,0,0,1,2.042.285l2.314,2.314a1.719,1.719,0,0,1,.286,2.041l-1.427,2.563a14.508,14.508,0,0,1,1.224,2.953l2.819.8a1.718,1.718,0,0,1,1.243,1.646v3.272a1.719,1.719,0,0,1-1.243,1.646l-2.819.8a14.526,14.526,0,0,1-1.224,2.953l1.426,2.562a1.719,1.719,0,0,1-.286,2.042l-2.314,2.314a1.719,1.719,0,0,1-2.041.286l-2.563-1.427a14.518,14.518,0,0,1-2.953,1.224l-.8,2.819a1.719,1.719,0,0,1-1.647,1.243Zm-2.994-2.081h2.715l.888-3.118A1.04,1.04,0,0,1,35.5,225,12.443,12.443,0,0,0,39,223.553a1.04,1.04,0,0,1,1.045-.019l2.833,1.577,1.92-1.92-1.577-2.833a1.041,1.041,0,0,1,.019-1.045,12.443,12.443,0,0,0,1.447-3.491,1.04,1.04,0,0,1,.725-.753l3.118-.888v-2.715l-3.118-.888a1.04,1.04,0,0,1-.725-.753,12.44,12.44,0,0,0-1.447-3.492,1.04,1.04,0,0,1-.019-1.045l1.577-2.833-1.92-1.92-2.833,1.577A1.04,1.04,0,0,1,39,202.092a12.437,12.437,0,0,0-3.491-1.447,1.04,1.04,0,0,1-.753-.725l-.888-3.118H31.149l-.888,3.118a1.04,1.04,0,0,1-.753.725,12.437,12.437,0,0,0-3.491,1.447,1.04,1.04,0,0,1-1.045.019l-2.833-1.577-1.92,1.92,1.577,2.833a1.04,1.04,0,0,1-.02,1.045,12.445,12.445,0,0,0-1.447,3.492,1.04,1.04,0,0,1-.725.753l-3.118.888v2.715l3.118.888a1.04,1.04,0,0,1,.725.753,12.438,12.438,0,0,0,1.447,3.491,1.04,1.04,0,0,1,.019,1.045l-1.577,2.833,1.92,1.92,2.833-1.577a1.041,1.041,0,0,1,1.045.019A12.443,12.443,0,0,0,29.508,225a1.04,1.04,0,0,1,.753.725Zm17.646-17.3h0Zm0,0h0Z" transform="translate(-14.405 -161.283)"/><path class="c" d="M77.022,263.748a6.406,6.406,0,1,1,6.406-6.406A6.414,6.414,0,0,1,77.022,263.748Zm0-10.733a4.326,4.326,0,1,0,4.326,4.326A4.331,4.331,0,0,0,77.022,253.015Z" transform="translate(-58.921 -205.802)"/><path class="c" d="M132.578,72.826h-3.524a1.77,1.77,0,0,1-1.7-1.28l-.877-3.078a15.543,15.543,0,0,1-3.246-1.345l-2.8,1.557a1.771,1.771,0,0,1-2.1-.294l-2.492-2.492a1.771,1.771,0,0,1-.295-2.1l1.558-2.8a15.543,15.543,0,0,1-1.345-3.246l-3.078-.877a1.77,1.77,0,0,1-1.28-1.7V51.652a1.77,1.77,0,0,1,1.28-1.7l3.078-.877a15.543,15.543,0,0,1,1.345-3.246l-1.557-2.8a1.771,1.771,0,0,1,.294-2.1l2.492-2.492a1.771,1.771,0,0,1,2.1-.295l2.8,1.558a15.543,15.543,0,0,1,3.246-1.345l.877-3.078a1.77,1.77,0,0,1,1.7-1.28h3.524a1.77,1.77,0,0,1,1.7,1.28l.877,3.078A15.543,15.543,0,0,1,138.4,39.7l2.8-1.557a1.771,1.771,0,0,1,2.1.294l2.492,2.492a1.771,1.771,0,0,1,.295,2.1l-1.558,2.8a15.544,15.544,0,0,1,1.345,3.246l3.078.877a1.77,1.77,0,0,1,1.28,1.7v3.524a1.77,1.77,0,0,1-1.28,1.7l-3.078.877a15.544,15.544,0,0,1-1.345,3.246l1.557,2.8a1.771,1.771,0,0,1-.294,2.1L143.3,68.386a1.771,1.771,0,0,1-2.1.295l-2.8-1.558a15.543,15.543,0,0,1-3.246,1.345l-.876,3.078A1.77,1.77,0,0,1,132.578,72.826Zm-3.284-2.08h3.045l.973-3.416a1.04,1.04,0,0,1,.753-.725,13.48,13.48,0,0,0,3.782-1.567,1.04,1.04,0,0,1,1.045-.02l3.1,1.728,2.153-2.153-1.728-3.1a1.04,1.04,0,0,1,.02-1.045,13.477,13.477,0,0,0,1.567-3.782,1.041,1.041,0,0,1,.725-.753l3.416-.973V51.891l-3.416-.973a1.04,1.04,0,0,1-.725-.753,13.48,13.48,0,0,0-1.567-3.782,1.04,1.04,0,0,1-.02-1.045l1.728-3.1L142,40.082l-3.1,1.728a1.04,1.04,0,0,1-1.045-.02,13.478,13.478,0,0,0-3.782-1.567,1.041,1.041,0,0,1-.753-.725l-.973-3.416h-3.045l-.973,3.416a1.04,1.04,0,0,1-.753.725,13.48,13.48,0,0,0-3.782,1.567,1.04,1.04,0,0,1-1.045.02l-3.1-1.728-2.153,2.153,1.728,3.1a1.04,1.04,0,0,1-.02,1.045,13.477,13.477,0,0,0-1.567,3.782,1.041,1.041,0,0,1-.725.753l-3.416.973v3.045l3.416.973a1.04,1.04,0,0,1,.725.753,13.48,13.48,0,0,0,1.567,3.782,1.04,1.04,0,0,1,.02,1.045l-1.728,3.1,2.153,2.153,3.1-1.728a1.04,1.04,0,0,1,1.045.02,13.477,13.477,0,0,0,3.782,1.567,1.041,1.041,0,0,1,.753.725Zm1.522-9.145a8.135,8.135,0,0,1-3.168-.636,1.04,1.04,0,1,1,.806-1.918,6.1,6.1,0,1,0-3.376-3.538,1.04,1.04,0,1,1-1.954.714,8.188,8.188,0,1,1,7.692,5.379Z" transform="translate(-91.223 -34.001)"/><ellipse class="b" cx="10.259" cy="10.259" rx="10.259" ry="10.259" transform="translate(54.484 57.518) rotate(-22.514)"/><path class="c" d="M162.809,417.161a3.761,3.761,0,1,0-6.446,2.628,3.747,3.747,0,0,0-1.076,2.628,1.133,1.133,0,0,0,2.266,0,1.5,1.5,0,1,1,2.99,0,1.133,1.133,0,0,0,2.266,0,3.747,3.747,0,0,0-1.076-2.628A3.747,3.747,0,0,0,162.809,417.161Zm-3.761-1.5a1.5,1.5,0,1,1-1.5,1.5A1.5,1.5,0,0,1,159.048,415.666Z" transform="translate(-91.192 -355.956)"/></g></g></svg>