<svg xmlns="http://www.w3.org/2000/svg" width="76.585" height="77.696" viewBox="0 0 76.585 77.696"><defs><style>.a{fill:#fff;}.b{fill:#edd3d4;}.c{fill:#7d2d2a;}</style></defs><g transform="translate(-668.473 2515.14)"><path class="a" d="M220.476,393.556H199.29l4.237-16.793h12.713Z" transform="translate(496.882 -2831.934)"/><path class="a" d="M130.718,112.515v47.492a2.8,2.8,0,0,1-2.8,2.8H58.8a2.8,2.8,0,0,1-2.8-2.8V112.515a2.8,2.8,0,0,1,2.8-2.8h69.113A2.8,2.8,0,0,1,130.718,112.515Z" transform="translate(613.406 -2614.767)"/><path class="b" d="M413.163,216.891h-9.28a.56.56,0,0,1-.56-.56V204.249a.56.56,0,0,1,.56-.56h9.28Z" transform="translate(330.961 -2691.189)"/><path class="b" d="M178.77,216.891h-44.6a.56.56,0,0,1-.56-.56V204.249a.56.56,0,0,1,.56-.56h44.6a.56.56,0,0,1,.56.56v12.081A.56.56,0,0,1,178.77,216.891Z" transform="translate(550.298 -2691.189)"/><ellipse class="a" cx="7.832" cy="1.742" rx="7.832" ry="1.742" transform="translate(698.934 -2480.71)"/><path class="a" d="M56,343.571v6.611a2.8,2.8,0,0,0,2.8,2.8h69.113a2.8,2.8,0,0,0,2.8-2.8v-6.611Z" transform="translate(613.406 -2804.942)"/><path class="a" d="M211.734,73.915c0,5.779-8.295,16.912-11.734,21.28a1.866,1.866,0,0,1-2.933,0c-3.439-4.367-11.734-15.5-11.734-21.28a13.2,13.2,0,1,1,26.4,0Z" transform="translate(508.232 -2574.921)"/><g transform="translate(668.473 -2515.14)"><path class="c" d="M90.017,128.726a.934.934,0,0,0-.934.934v.027a.934.934,0,1,0,1.868,0v-.027A.934.934,0,0,0,90.017,128.726Z" transform="translate(-81.97 -115.088)"/><path class="c" d="M109.342,128.726a.934.934,0,0,0-.934.934v.027a.934.934,0,1,0,1.868,0v-.027A.934.934,0,0,0,109.342,128.726Z" transform="translate(-97.685 -115.088)"/><path class="c" d="M128.666,128.726a.934.934,0,0,0-.934.934v.027a.934.934,0,1,0,1.868,0v-.027A.934.934,0,0,0,128.666,128.726Z" transform="translate(-113.399 -115.088)"/><path class="c" d="M123.85,64.867H102.519a14.131,14.131,0,0,0-26.45,0H54.737A3.74,3.74,0,0,0,51,68.6v47.492a3.74,3.74,0,0,0,3.736,3.736H80.928l-2.955,11.712H75.11a.934.934,0,1,0,0,1.868h28.368a.934.934,0,0,0,0-1.868h-2.864l-2.955-11.712H123.85a3.74,3.74,0,0,0,3.736-3.736v-6.61a.934.934,0,0,0-.934-.934c-.018,0-.034,0-.052.005s-.034-.005-.052-.005H52.869V75.734H76.751a51.862,51.862,0,0,0,3.485,6.351.934.934,0,0,0,1.58-1c-3.133-4.972-4.788-8.859-4.788-11.24a12.266,12.266,0,0,1,24.532,0c0,5.618-8.828,17.266-11.533,20.7a.932.932,0,0,1-1.466,0c-.939-1.193-2.382-3.071-3.919-5.245a.934.934,0,0,0-1.525,1.079c1.56,2.206,3.023,4.112,3.976,5.322a2.8,2.8,0,0,0,4.4,0c3.185-4.045,7.912-10.494,10.351-15.973h23.874V104.34a.934.934,0,1,0,1.868,0V68.6a3.74,3.74,0,0,0-3.736-3.736ZM98.688,131.543H79.9l2.955-11.712H95.733Zm27.031-21.124v5.676a1.87,1.87,0,0,1-1.868,1.868H54.737a1.87,1.87,0,0,1-1.868-1.868v-5.676ZM52.869,73.866V68.6a1.87,1.87,0,0,1,1.868-1.868H75.509a14.117,14.117,0,0,0-.35,3.114A12.306,12.306,0,0,0,76,73.866Zm49.728,0a12.371,12.371,0,0,0,.83-4.017,14.117,14.117,0,0,0-.35-3.114H123.85a1.87,1.87,0,0,1,1.868,1.868v5.262Z" transform="translate(-51.001 -55.715)"/><path class="c" d="M223.957,102.533a7.361,7.361,0,1,0-7.361-7.361A7.369,7.369,0,0,0,223.957,102.533Zm0-12.853a5.493,5.493,0,1,1-5.493,5.493A5.5,5.5,0,0,1,223.957,89.68Z" transform="translate(-185.664 -81.816)"/><ellipse class="c" cx="1.045" cy="1.045" rx="1.045" ry="1.045" transform="translate(8.958 47.437)"/><ellipse class="c" cx="1.045" cy="1.045" rx="1.045" ry="1.045" transform="translate(12.12 47.437)"/><ellipse class="c" cx="1.045" cy="1.045" rx="1.045" ry="1.045" transform="translate(15.283 47.437)"/><path class="c" d="M189.515,310.257h-3.126a.963.963,0,0,0-.971.844.936.936,0,0,0,.931,1.028h3.166a.936.936,0,0,0,0-1.871Z" transform="translate(-160.306 -262.71)"/><path class="c" d="M260.548,310.257H227.654a.936.936,0,0,0,0,1.871h32.933a.936.936,0,0,0,.931-1.028A.963.963,0,0,0,260.548,310.257Z" transform="translate(-193.896 -262.71)"/></g></g></svg>