<svg xmlns="http://www.w3.org/2000/svg" width="167.724" height="48.86" viewBox="0 0 167.724 48.86"><defs><style>.a,.d{fill:#fff;}.a{fill-rule:evenodd;}.b{fill:#702826;}.c{fill:none;stroke:#702826;stroke-linejoin:bevel;stroke-width:0.5px;}</style></defs><g transform="translate(1964 -8620)"><path class="a" d="M.1,45.74l.12-.12v-.25l.21-.06.13-.08v-.08H.74v-.08H.8L1.1,45v-.4l.15-.05-.06-.14.16-.14-.05-.08v-.13L1.26,44l.13-.2H1.31v-.12h-.1l.07-.14v-.25l.12-.1-.08-.15.14-.09v-.34l.07-.13h0v-.06l.1-.19-.17-.2.17-.1V41.7h.09l.08-.07h0l.28.08.1-.08h.07v-.08l.13-.1h0v-.14l.14-.28h0l.37-.2h0l.13-.09.12.09h.15l.14.08h0l.24-.34.25.18.34-.24h0l.06-.11h0l.11-.05L4.81,40h.11l.42-.18.36.19.3-.25H6v-.07l.22-.22.24-.07.24-.25L6.82,39H7l.08.1v.09L7,39.38h.08v.12h.09l.07.17.29-.12.11-.07.12-.07.24-.2.08-.08.15-.06H8.4v.11h.17l.08.11H8.9l.83-.37h.1v.16h0v-.06l.05-.1.36-.23h.17l.07.14.2-.09h0l.14-.47h.27v-.23h-.24v-.11h-.06v-.2l.12-.2h.2l-.05-.12.25-.29h.44l.06-.14h-.06v-.15h.32l.12-.1.06-.1v-.17l.13-.08L12.5,36l.09-.07-.1-.15-.13-.23-.28-.2h0l.11-.18L12.07,35h-.13l-.09-.08V34.7h-.12l-.13.07-.14-.26-.1.09H11.1l-.11.1-.3-.21-.2.06-.05.11-.17-.14v-.08H10.1l-.1-.11H9.9l-.14-.16H9.39v.13H9.33v.26l-.12.09H9.12V34.3H9v-.07l.17-.16L9.08,34H9l-.22-.12H8.6l-.07.15-.24.13.08.06v.16h.1l-.11.08h0l-.17-.11-.23-.07-.21.11-.08.12H7.54l-.17.12-.23-.06L7,34.49H6.93l.05.07-.34.47-.06.09L6.47,35H6.18v.13H6.12v-.1l.19-.24-.12-.07H6.13l-.21-.21-.24.09-.18-.17-.19.44H5.19L5,34.61H4.92v.12H4.83l-.21-.21-.19.07h0l-.17-.12v-.34L4.27,34v-.34l-.11-.12v.08l-.2-.12-.26.2h0v-.31l.09-.09h0L3.61,33H3.47l-.13-.07-.09-.13H3l.09-.26v-.13H2.95l-.05-.15v-.18L2.94,32v-.1l-.17-.45-.18-.27-.26-.21H2.05l-.15-.13-.52-.05.09-.22.18-.13h.11l.12-.1h.07l.24-.15H2.5L2.73,30h.12l.32.25.24-.06.23.08h.21l.1.12V30.3L4.2,30l.06-.21.25-.15v-.19l.16-.07L5,29.26l.22-.07.11.12.17-.07.13.16.31-.17.05.15h.17v-.12l.22-.15L6.49,29l.27-.11.06-.05.46-.4h.11v-.1l.07-.08v-.08l.1-.18h.16l.07-.06V28l.08-.1h0L8,28h.17l.33.09.07.18.06.07.06-.09h.12v-.11l.26-.17.15.08.2-.07.06.09L9.69,28l.05.12L9.87,28h.22l.18-.2v.09l.09-.08h.28v0l.08.45.16-.15.07.12.13-.07h.07l.19-.13v-.11l.19-.13.08.09h.09v.05l.22-.2.14-.14v-.1h.12l.11-.05v.09h0l.09-.13h.09l.08-.25.14.13.13-.2h.11v-.06h.08l-.06-.16.06-.09v-.14h.07v.06l.22-.1V26.5l.08-.09.17.05v.15l.05-.15H14l.07-.2h.55v-.11L15,26l.33.21.13-.12h.07l.09-.15h.19v-.06L16,25.8h.13l.21-.18.75-.25.08-.08h.21v-.24l.15.05V25h.15l.08-.08.24.07.28-.14.19-.09h.1v-.05h.17l.4-.3h.15l.05-.08v.18l.13.08-.07.07.25.14v.09h.19l.24-.29h.18v-.08h.14l.14-.13h.18l.12.3h0l.07-.05h0v-.21h.16l.07-.12h.14l.11.05.16.15h.13v.15h.38v-.19h.13l.07-.25h.07l.06-.06.1-.09v.35l.17.14h.09l.05.16h.07L23,24.7l.53-.18.1-.2.1-.05.14.14v.15h.31l.24-.07.23.05.44-.24.15-.09h.16l.54-.38.33-.24v-.17l.24-.05.08-.1h0l.12.12h.15l.16-.08h0l.06.17.28.07.35-.16h.19l.12-.07.13.06.14-.09.18.11v.18h0l.11.08.09.06h.16l.18-.09v.19h.05l.56-.27h.09v.11l.13.07h.13l.07.05.22-.07v.28h0l-.11.23-.27.24-.07.12.16.42.15.17.16-.09.08-.26.27-.13.3.07.2-.07.06.18.37-.21.34-.31v-.11l.1-.08V24l.22-.11.36-.14h0l.18.05.47-.39h.12l.21-.17.66-.29.45-.44v-.14l.63-.21.95-.33.41-.19.21-.1.63-.35.7-.33.17-.08.38-.15.45-.14.21-.13.06.05h.14l.28-.14v-.15l.82-.37,1.22-.58h.06l1.2-.47.15-.13.1-.09.35-.12.36.08.41-.2.08-.11.7-.29h-.09l.1-.11-.1-.09h0l.09-.14-.07-.25-.07-.09-.14.08L45,17h.07l-.13-.12-.2-.17-.12.08-.13-.08-.07.11-.07-.08-.12.09h-.16v-.1L44,16.5l-.14.07h-.18l-.06-.12.23-.26-.06-.08-.1.05h0l.26-.49.12-.17.35-.25v-.14h-.06l.34-.15h0v-.09l.13-.14-.06-.19.16-.1.18.06h0l.17-.36.23-.14.12-.06V13.6l-.33-.26v-.13L44.88,13l.15-.25v-.08l.11-.13v-.05l.09-.08-.06-.33.2-.2.12.19.25-.08.12-.08v-.17h-.21v-.07l.2-.16v-.09l.21-.12v-.23L46,11l-.11-.14.21-.11-.1-.17-.13-.06V10.4l.14-.2V9.68l.07-.06h0l.16-.07.15-.19.17-.16.08-.06-.09-.2.1-.18V8.65h-.1l-.09-.09V8.34l.11-.15-.23-.44.15-.09V7.55l.08-.06V7.41l.09-.23.19-.13.07-.15L47,6.83V6.57l.11-.25h.42V5.91l.22-.1V5.72l.33-.37V5.28l.06-.12V5.07h.36V4.99l-.06-.13-.3-.16h-.11L48,4.6V4.46h-.16l-.26-.19V4.18l-.16-.13V3.94l.22-.26.23-.09v.07H48V3.49l.11-.05.26-.21h.49l.34-.09.13-.11h.26l.32.12L50,3l.39.17L50.3,3l.12-.12h.09l.05-.19-.05-.13V2.43l.08-.19.17-.16-.07-.16.08-.14.24-.07.07-.12V1.54l.06-.13-.16-.18L51.23.7V.58h.22l.16.07h.1l.07-.13.19-.08L52,.27V.19l.09-.07V.05h0L52.47,0l.1.2.19.13.2.13L52.91.6l.2.09.17-.07-.12.15h.22L53.5.65h.46L54,.8h.13l.1.19V.94h0l.11.07v.14h.06V1.2l.07.12-.15.3.09.25V2h.22V1.91l.25.12-.11.07-.14.33v.08h.1V3l-.22.07v.32l.28.2v.4l.07.09v.16h-.09l-.1.2V4.6l.12.1v.12h-.13v.09l.07.27h.08l-.07.15h-.06l-.08-.11V5.5h.15v.1l-.23.47h0v.06l.11.08H55v.07l-.22.1v.14l.23.06V6.47l.2-.1h0l.07.12h.11l.08.09v.14l.1-.12h.15v.15l.19.08V7.1h.44l.27.22h.1l.34-.11.09.31h0l.2.09v.15l.07.06.13-.18h0l.15.18.3-.06.23.13h0l.08-.18h.06l.15.18.17-.1.09.07h.07v.21l.17.15h0l.25.09.11.12h.21l.31-.3h.08l.07.06.06-.07.19.06h.17V8.11h.07v.13H61l.47.12h0l.15.15v-.1h.15v.14h.11l.24.29h.14l.06.07V8.86l.11.09V8.88h.06V8.8h.12l.06.06.08-.2.28-.08.11.09h.11v.08l.05-.06v.06h.08v.06l.17.05.12.15V8.94l.07.07h.1v.08L64,9h0l.06-.11v.08h.06L64.1,9h.11v.07h.22V9.04l.05.07V8.92h.25l.07-.19h.07l.25.07.26-.2h0l.18-.06v.05h.16l.14.16h.05l.26.17.25.32L66.8,9l.22.08h.1l.14.27v.32h.17l.13-.11v.11h.06l.07.09h.1v.08l.12.07h0l-.06.27-.08.48.08.33h-.09l-.3.57h-.09l-.16.14-.17.4-.29.47-.24.3-.17.11-.29.38-.17.52v.55l.25.77.15.2.28.15h.2l.12.08v-.07l.08.13-.25,1.29v.76L67,19.17l.5,2.22.11.59v.44l-.18.55-.14.18-.29.24-.6.61-.57.32-.87.6-.46.36-.79.41-.67.28-.91.28-2.26.63-1,.31-.95.39-.66.28-.49.23-.32.14-1.13.61-.1.07-.8.69-.17.09-.28.19-.11.16v.19l.13.06-.06.13.05.09-.35.18h0l-.47.32-.42.35-.17.21-.11.23-.07.34h-.11l-.17.19h-.22l-.15.14-.3.42v.18l-.22.21H51l-.1-.17-.24.08-.21.2-.17.36-.17.68h-.07l-.09.21v1.11l.2.93.2.24h.32v.1l.24.4.21.17.21.06h.11v-.24h.13l.08-.08.21.06.1-.08V37h.12v-.08l.09.08-.11.18.18.05v.14h-.09l-.06.1v.17l-.11-.13h-.06l.12.26h-.06v-.13l-.16.16v-.1h-.09v-.08h-.08l-.2.14-.15.2v.13l.09.08v.1l-.2-.08-.06.07-.43.16-.28.5v.26l.06.08h.07l-.09.07.05.08-.18.17h-.14v.09l-.06-.08h-.12l-.2.18-.12.2-.09.37v.19l.07.23h.18l-.07.18.07.1.12-.12.2-.09h0l-.12.06v.14l.06-.06h.11l-.11.18-.18-.1h0l.06.07h-.12v.15h.15l.05.08-.09.09v.18l-.08-.21-.29-.14v-.15l-.15-.11-.58-.18-3.71-.3-1.31-.07H41.63l-.29-.07h-1.3l-.88.07-.64.13-.16.08v.19l-.11.07-.09-.08h-.29l-1.74.12-1.06.07-.74.16-.67-.07h-1.1l-.06.1-.11-.09H32l-.19.12v-.1l.07-.09-.13-.17-.5-.15h-.49l-.07-.14h-.08v-.15H30.3l.15-.06v-.22h.05l.09.15h.07v.06l.1.09h.11l.12-.18v-.19h-.27l-.1-.2h-.13l-.12.1-.1-.16.22-.2v-.13l-.14-.05.08-.11h.14v.09h.1v-.24l.16-.2.17-.32v-.01l.26-.16.25-.31-.22-.06v-.23l.2-.14v-.2l.1-.09.58-.32v-.09l-.07-.17.06-.16-.12-.15v-.12l.06-.09h.09L32,36.26l.06-.11L32,36.08v.05L31.89,36l-.11.08L31.7,36v.06h-.16l-.35-.17-.11.14-.21.05h-.06v.13h0l-.08-.08v.1h-.07v.19l-.17.15h-.13l-.13-.12H30l-.21.06v.07l-.27.11-.58.13.05.07-.06.09-.2.08L28.58,37v.08h-.11l-.08.1v.07l-.18.13h-.1l.08.08-.3.23h0l-.13.13v.09l-.19.28v.14l.08.16.16-.11v.14l.14.08.2.27.21.13.08.33-.06.13.08.16.13-.11.08.08h.05l.09.05.15-.14.14.15-.18.2.05.11.33-.09.17.06v.06h.06V40h.03l.14.15h.12v.15h.07l-.06.08h-.21v.06h0v.11l-.06.17v.11l-.1.12h-.1v.07l.17.07.14-.15.19-.1-.08.1.1.13-.24.07.07.06v.12h-.16l-.27.17-.05.16.09.08h-.1l-.07.06h-.52l-.39.24h-.55l-.2.13v.12h-.18v-.09l-.13-.06-.08-.14-.25-.12-.05-.08h-.19l-.14-.14-.37-.16h-.33l-.19.19-.17-.16v.07l.05.12-.05-.09-.15.13h0l.09.05.29-.08v.09h-.01l.06-.08v-.14l.12-.08.48.05.15.07h-.09l.05.09h-.08l-.11-.07v.07h.63v.1h.15v.09l.26.11-.18.06-.9-.09L25,42.33l-.39.13-.08.08v.08l-.09-.1H24.1l-.23.15v.09l-.49.07V43l-.22.11v.17h0l-.07.07v-.07h-.23V43.1l-.19-.1-.3-.1H21.1l-1.9.15-1.4.2-1.67.29-.53.27h-.16v-.08l-.19-.06v-.21l-.07-.07.1-.13h.12l.11-.09v-.19h.12l.18-.26.33-.1.1.17.3.16h.22l.34.19h.24l.12-.12v-.25l-.05-.11-.23-.18L17,42.41l-.08-.11.09.1.27.12.47.22.63.26.59.06,1.42-.12.78-.22.9-.21.15.06.05.1.6.25v.2l.17-.26v-.09H22.9v.14l-.13-.07-.14-.19v.07l-.15-.14h0l-.15-.06-.1-.18L22,42.19l-.16-.13H21.6L21.52,42h-.16l-.2-.3-.22-.12-.16.12-.05.1-.1-.13h-.1l-.21-.3-.13.07V41.3l-.17-.19-.6-.39v-.1h-.07l-.16-.14v-.06h-.16l-.17-.11-.19-.06-.18.09v-.13h-.13l.06.2-.23.14h-.16v-.08h-.14V40.4h-.06l.31-.1.06-.08-.07-.1h-.34l-.25.06-.16.12-.08.19h-.1l-.28.15h-.53l-.18-.07-.24.15-.21-.06-.2.08-.11.1h-.09v-.08l-.15.22L15,41.1v.12h-.14l-.07.31-.21.06-.16-.08.24-.32-.06-.12.11-.11-.12-.23-.29.2h-.2l-.12.13h.06v.09l.11.14-.11.35-.26.09V42l-.29.32-.46.22h-.16l-.07.09-.06-.14h-.17l-.17.08v.09h.07v.09h-.1v0H12.2v-.23l-.12-.07-.53.27h0l-.09.06h-.11V42.7h-.07l.12-.09.14-.34.25-.17v-.11h-.14l-.21-.25h-.1v-.1l-.23.22-.1-.11-.13.09-.08.13v.07l-.11-.05h-.08v.14h-.27l.14-.3-.37.17-.06.09H9.89v.12l-.06-.09-.05.1H9.7v.11H9.6l-.07.09-.07-.06-.17.15v-.15H9.16V42.3H9.09v-.14h.1v-.18l.16-.14h.29v-.2h.09l.05.07.19-.11v-.14l.11-.17h.07v-.08H9.87l-.19.08-.05.11H9.57v-.14l.15-.06H9.61v-.15l.18-.07.05-.08h-.1v-.14l-.08-.06v-.05l-.1.08-.13-.1H9.36l-.1.16-.1-.14H9.13l-.1.09H9v.2l.06-.15.24.11-.16.2H9.08l-.07.1h-.1v.15l-.06.05-.05-.06v.12l-.06-.06.15-.19L8.59,41H8.33l-.08-.2v.08L8.06,41v.16H8v.1H7.88v.18l.09.11H7.9v.15l-.1.08v.07h.15l.08.08L7.79,42l-.14.18.1.16h.17l-.25.13-.13-.21H7.41v-.14L7.37,42h-.1v.09L7.13,42H7.01l-.11.23-.27.19-.1-.07H6.21l-.36.18H5.68l-.14.16H5.41v.11l-.17.2h0l-.26.1.14-.21v-.06l-.1-.07-.2.09H4.76V42.8H4.68l-.35.17V42.9H4.22l-.1.1L4,42.89,3.93,43l-.11-.06-.17.19v.14h-.1l-.08.12v.05H3.38l.06.15H3.35l-.06.18v.35l.18.11-.06.08H3.29v.21l.1.06-.1.17H3.17v.19h.14v.1h-.2v.12h.06L3,45.48v.07H3l-.05.15.13.19h.05v.16H3.04l.06.08-.05.15h.3l.08-.19h.11L3.68,46v-.08h.03v-.09l.05.06v-.05H4l.13-.36h.14v.2h.3v.11h.19l-.19.16v.15l-.06.06H4.42v-.09H4.3l.08-.15-.25.2v-.08l-.17-.06.06.14-.08.12L4,46.12v.06l-.2.14-.1-.08-.1.15H3.53l.09.08-.23.12h.23l.16-.15v.09h.11L4,46.41l.13-.08h.23l.07.1.36-.11-.2.19-.29.61L4,47.4v.06l.28.1-.07-.09v-.1l.08-.06h.06l.11-.13.19-.47.41-.27v-.12h.38l.25-.13v.09l-.27.24v.16l-.15.24.08.09h.06l.29.08h.14v.07l.2-.14.32.25v.07h.08v.11h.13v.1l-.12.09-.06-.17-.27-.08-.11.09L6,47.65H6l-.15.09H5.76L5.59,48l.06.13-.36.5-.14.09L5,48.66l-.11.15h0v-.33H4.77l-.09.06v-.17H4.6l-.08.17-.1.05.09-.26-.2-.11H4.18l-.07.13H3.94v.16l-.21-.05-.07-.19-.1.09v.14l-.09.08v-.07l-.26-.14L3,48.43l-.07.12h.05v.06H2.87l-.07.09.13.16-.17-.08-.15-.11h-.2l-.18-.3-.31-.06v-.1L1.85,48v-.2l-.13-.18V47.5h0l-.32-.17v-.12l-.34.14v-.19H1V47l-.17-.12.06-.13-.3-.14H.24L.18,46.3H.06L0,46.12.13,46Zm2.81,2.91Zm52.36-18Zm-.24.21V30.8l.14-.08.07.08-.09.05.06.13h-.12Zm-50,12.31ZM3.6,44Zm.13,4.64ZM5.92,42.9Zm-.66,3Zm-.34-2.69H5ZM3.62,44.3ZM3.46,44Zm.31,2.44Zm-.23-1.15Zm2,1.69Zm-.43-3.36Zm.58-.67Zm-1.91.87Zm-.25.57H3.48Zm1-1.3ZM13,42.72ZM5.73,46.09ZM4.42,43.22ZM4.57,43ZM3.38,46h0Zm9.2-3.29h0v.06h0ZM5.5,48.54ZM3.86,45Zm-.21-.92ZM4,45.39H4v.07H4Zm1.31.29Zm-.43-2.57Zm.56,2.37Zm7.71-2.82Zm-9,3.59Zm.07-3Zm1.4-.15h0V43h.03ZM3.35,44.92v-.07l.18-.09v.1l-.17.24Zm1.3,1.15L4.91,46l.19-.24.11.08h.06v.09L5,46v.1H4.72ZM11,45.76h-.13l.11-.1-.07-.14-.26.14.08-.18-.12-.15-.19-.06h-.29l-.28.15.05.08-.28.38v.24l-.27.06L9.49,46h-.2v-.15l.17-.28V45.4H9.39l-.21.2-.07-.24-.2.08-.08-.11v-.1L9,45h.13l.12-.11h.09l.16-.14h.23l.11-.2-.08-.08.13-.08h.09V44.3l.06-.15.26-.2v.33h.11v.1h.1l.08-.2.11-.05v-.11h.26v-.07l.14-.05v-.18h-.14l.38-.13v-.14h.08v.07h.41v.11H12v.09h.08l-.17.11-.08-.09h-.22v.08h.13v-.07l.09.22h.08l.37-.08h.11l-.06.19v.17l.09.08.16-.06v-.06h.11l.08-.18.35-.1v.08l-.13.13-.14.16v.12h.1l-.13.2v.06l.13-.07.28-.14v.11l.16.19h.28l-.06.16-.24.06-.14.14h-.25l.05-.08.08-.1-.1-.13-.01.24-.38.07-.2.26-.12-.1h-.14l-.07.15h.13v.07l-.25.17v-.12l-.18-.1-.34.07-.09.07h-.22Zm18.32-3.27ZM23.85,43Zm-9.22-1.26Zm-1.17.65Zm15.76,1Zm-11.54-2.5Zm-1.75,0Zm.06,0ZM27.86,42.5ZM16.16,42Zm11.29.57ZM16.2,41.16h.03Zm6.72,2.27Zm6.36-1Zm-1.94.22Zm-11.17-.26ZM29.09,42.39Zm-12.81,0Zm.41-.68Zm.19.12h0v.06h-.05Zm12.18.89Zm-12.32-1.8ZM16.15,42h.09Zm7.61,1.12h-.02Zm6.31-.09h.03v-.06h0ZM16.84,41.54h.08v-.06Zm12.38,1.68h.05v.07h-.06Zm-11.5-2.13Zm13-3.53.06-.17-.05-.1.07-.1h.06v.08l-.08.12.08.11-.09.09ZM14.46,42v-.07l.26-.1.08.21-.14.07L14.62,42l-.07.09Zm2,0v-.12l.1-.05.05-.12h.18v.11l-.15.12-.15.28ZM29,39.27h-.19l.1.11v.07h-.08v-.07h-.19V39.3h-.06v-.07l-.13-.38h.34v.17l-.08-.13-.11.07v.11l.13.14ZM17.36,40.55l.05-.06h.24l-.17.28h.05v.09h.06l-.12.06-.07-.05-.21.2h-.27l.07-.16-.12-.1v-.14l.17-.08.14.06v-.1h.1ZM29.76,38l-.25.21.08.06v.25l.19.06-.13.15-.07-.14-.15.18-.11-.23H29.1l-.1-.09-.3.1-.26.24-.12-.07v-.08l-.2-.11-.08-.17.07-.12.14.08h.13v-.13l.23-.24v-.1l.19.06.18.16h.33v-.14l.12-.1h.08l.06-.1h.05v.13l.09-.11h.15v.16Z" transform="translate(-1964 8620)"/><circle class="b" cx="2.32" cy="2.32" r="2.32" transform="translate(-1913.6 8636.82)"/><circle class="b" cx="2.17" cy="2.17" r="2.17" transform="translate(-1949.91 8649.85)"/><circle class="b" cx="2.25" cy="2.25" r="2.25" transform="translate(-1930.64 8650.47)"/><circle class="b" cx="1.71" cy="1.71" r="1.71" transform="translate(-1922.5 8628.59)"/><circle class="b" cx="1.56" cy="1.56" r="1.56" transform="translate(-1926.49 8640.23)"/><circle class="b" cx="1.28" cy="1.28" r="1.28" transform="translate(-1900.99 8638.95)"/><path class="c" d="M39.07,21.79l4.2-11.49,9.45,8.84L35.61,32.72,64.29,20.23,52.72,19.14,39.07,21.79,35.61,32.72l-19.35-.7" transform="translate(-1964 8620)"/><path class="d" d="M87.42,28.64a13.9,13.9,0,0,1,4.12.59A4.9,4.9,0,0,1,94,30.87a8.23,8.23,0,0,1,1.27,2.37A9.21,9.21,0,0,1,95.75,36v.27a.13.13,0,0,0,0,.08v.2a8.2,8.2,0,0,1-.61,3,5,5,0,0,1-1.58,2,7.7,7.7,0,0,1-2.17,1.18,7.53,7.53,0,0,1-2.37.37H81.31V28.64Zm0,11.59A4.39,4.39,0,0,0,89.15,40a3,3,0,0,0,1.22-.89,5.19,5.19,0,0,0,.78-1.25,4.64,4.64,0,0,0,.33-1.38h0a.15.15,0,0,1,0-.06v-.49a.16.16,0,0,1,0-.08v-.08a1.15,1.15,0,0,0,0-.19.47.47,0,0,0,0-.17A4.86,4.86,0,0,0,91,34a5.22,5.22,0,0,0-.83-1.21,3.3,3.3,0,0,0-2.61-1.15H85.37v8.62Z" transform="translate(-1963.841 8620)"/><path class="d" d="M101.86,28.64V43.05H97.78V28.64Z" transform="translate(-1963.841 8620)"/><path class="d" d="M113.93,32.25a1.75,1.75,0,0,0-.52-.53,3.39,3.39,0,0,0-.66-.33,2.84,2.84,0,0,0-.7-.16h-.43a3.22,3.22,0,0,0-1.61.37,2.5,2.5,0,0,0-1,1.12,6.07,6.07,0,0,0-.57,1.56,9.619,9.619,0,0,0-.23,1.73v.37a5.19,5.19,0,0,0,.27,1.73,3.86,3.86,0,0,0,.8,1.34,3.49,3.49,0,0,0,1.29.88,4.52,4.52,0,0,0,1.7.29h.47l.51-.06.52-.1.55-.14V37.88h-2.83v-3h6.91v7.67a7.7,7.7,0,0,1-.87.24c-.32.06-.67.12-1,.17l-1.11.13-1.14.13a5.78,5.78,0,0,1-.71,0h-2.04a9.17,9.17,0,0,1-3.08-.49,7.09,7.09,0,0,1-2.47-1.46,6.16,6.16,0,0,1-1.6-2.34,8.06,8.06,0,0,1-.53-3v-.8a1.358,1.358,0,0,1,0-.2,1.5,1.5,0,0,0,0-.22c0-.07,0-.13,0-.2v-.2a7.09,7.09,0,0,1,.71-2.17,8.8,8.8,0,0,1,1.4-2,5.33,5.33,0,0,1,2.32-1.43,10.92,10.92,0,0,1,3.43-.48,11.85,11.85,0,0,1,2.39.22,8.32,8.32,0,0,1,2,.66,3.33,3.33,0,0,1,1.47,1.39,6.58,6.58,0,0,1,.72,2.43h-4.08a2.54,2.54,0,0,0-.28-.68Z" transform="translate(-1963.841 8620)"/><path class="d" d="M125.07,28.64V43.05H121V28.64Z" transform="translate(-1963.841 8620)"/><path class="d" d="M139.49,28.64v3H135V43.05h-4V31.61h-4.54v-3Z" transform="translate(-1963.841 8620)"/><path class="d" d="M149.2,28.64l5.66,14.41h-4.54l-1-2.66h-5.63l-.94,2.66h-4.24l5.8-14.41Zm-2.64,3-1.89,5.81h3.6Z" transform="translate(-1963.841 8620)"/><path class="d" d="M160.51,28.64V40.07h6.43v3H156.43V28.64Z" transform="translate(-1964 8620)"/><path class="d" d="M110.08,24V7.09a1.46,1.46,0,0,0-.29-.93,1.58,1.58,0,0,0-.78-.54,3.19,3.19,0,0,0-1.11-.18,3.421,3.421,0,0,0-.781.09,2,2,0,0,0-.559.28,3.169,3.169,0,0,0-.47.49L95.79,19.89,85.56,6.3a2.3,2.3,0,0,0-.48-.5,2,2,0,0,0-.62-.27,3.23,3.23,0,0,0-.81-.09,3.17,3.17,0,0,0-1.12.18,1.58,1.58,0,0,0-.78.54,1.51,1.51,0,0,0-.28.93V24h3.66V12L94,23.62a1.94,1.94,0,0,0,.76.58,2.44,2.44,0,0,0,1,.19,2.57,2.57,0,0,0,1-.19,1.88,1.88,0,0,0,.74-.58L106.36,12V24Zm16.27-5.19a17,17,0,0,0,3.3-.26,4.84,4.84,0,0,0,2.09-.88,3.43,3.43,0,0,0,1.1-1.7,9.421,9.421,0,0,0,.31-2.69V11.7a9.11,9.11,0,0,0-.33-2.7,4,4,0,0,0-1.12-1.81,4.91,4.91,0,0,0-2.1-1,14.72,14.72,0,0,0-3.25-.31h-14.5V24h4V18.8Zm2.77-5.69a3.36,3.36,0,0,1-.26,1.48,1.43,1.43,0,0,1-.89.73,5.07,5.07,0,0,1-1.67.21H115.89V9.33h10.36a5,5,0,0,1,1.71.22,1.49,1.49,0,0,1,.9.78,3.51,3.51,0,0,1,.26,1.53Z" transform="translate(-1964 8620)"/><path class="d" d="M155.91,24l-10.63-6.15h3.19a17.74,17.74,0,0,0,3.21-.23,6.15,6.15,0,0,0,2.25-.84,3.51,3.51,0,0,0,1.31-1.62,6.76,6.76,0,0,0,.43-2.6V11.3a7.41,7.41,0,0,0-.4-2.69A3.55,3.55,0,0,0,154,6.93a5.63,5.63,0,0,0-2.22-.85,19,19,0,0,0-3.26-.24H134.34V24h4V17.4L149,24Zm-4.28-11.5a3.32,3.32,0,0,1-.16,1.19,1.33,1.33,0,0,1-.55.7,2.61,2.61,0,0,1-1,.32,10.76,10.76,0,0,1-1.62.08h-9.91V9.25h9.91a11.2,11.2,0,0,1,1.65.08,2.61,2.61,0,0,1,1,.32,1.29,1.29,0,0,1,.54.69,3.5,3.5,0,0,1,.15,1.17v1ZM160.76,24a14.58,14.58,0,0,0,3.37-.33,4.81,4.81,0,0,0,2.13-1.07,4,4,0,0,0,1.13-1.92,10.319,10.319,0,0,0,.33-2.91V5.84h-4V17.58a5,5,0,0,1-.14,1.36,1.84,1.84,0,0,1-.5.91,2.13,2.13,0,0,1-1,.52,6.61,6.61,0,0,1-1.61.16h-4.38V24Z" transform="translate(-1964 8620)"/></g></svg>