<svg xmlns="http://www.w3.org/2000/svg" width="79.858" height="19.946" viewBox="0 0 79.858 19.946"><defs><style>.a{fill:#fff;}.b{fill:#333d47;}</style></defs><g transform="translate(1)"><g transform="translate(59 0)"><g transform="translate(0 0)"><circle class="a" cx="9.929" cy="9.929" r="9.929" transform="translate(0 0)"/><path class="b" d="M5.733,6.466H3.961v6.491H1.277V6.466H0V4.185H1.277V2.708A2.517,2.517,0,0,1,3.985,0L5.973.008V2.222H4.53a.546.546,0,0,0-.569.622V4.187H5.967Z" transform="translate(6.692 3.852)"/></g></g><g transform="translate(29 0)"><g transform="translate(0 0)"><circle class="a" cx="9.929" cy="9.929" r="9.929" transform="translate(0 0)"/><path class="b" d="M11.568,1.113a4.735,4.735,0,0,1-1.363.373A2.38,2.38,0,0,0,11.248.173,4.751,4.751,0,0,1,9.741.749,2.375,2.375,0,0,0,5.7,2.914,6.737,6.737,0,0,1,.805.434,2.376,2.376,0,0,0,1.539,3.6a2.357,2.357,0,0,1-1.075-.3c0,.01,0,.02,0,.03a2.375,2.375,0,0,0,1.9,2.327A2.382,2.382,0,0,1,1.3,5.7,2.376,2.376,0,0,0,3.514,7.352,4.762,4.762,0,0,1,.566,8.368,4.779,4.779,0,0,1,0,8.335,6.713,6.713,0,0,0,3.638,9.4,6.707,6.707,0,0,0,10.39,2.648c0-.1,0-.205-.007-.307a4.813,4.813,0,0,0,1.184-1.228Z" transform="translate(5 6)"/></g></g><g transform="translate(-1 0)"><g transform="translate(0 0)"><path class="a" d="M7.666,9.387H1.721A1.723,1.723,0,0,1,0,7.666V1.721A1.723,1.723,0,0,1,1.721,0H7.666A1.723,1.723,0,0,1,9.387,1.721V7.666A1.723,1.723,0,0,1,7.666,9.387ZM4.694,1.6a3.09,3.09,0,1,0,3.09,3.091A3.094,3.094,0,0,0,4.694,1.6ZM7.883.78a.731.731,0,1,0,.731.731A.732.732,0,0,0,7.883.78Z" transform="translate(5.28 5.307)"/><path class="a" d="M1.784,0A1.784,1.784,0,1,0,3.569,1.784,1.787,1.787,0,0,0,1.784,0Z" transform="translate(8.189 8.216)"/><path class="a" d="M9.973,19.946a9.973,9.973,0,1,1,9.973-9.973A9.984,9.984,0,0,1,9.973,19.946ZM7,4A3.03,3.03,0,0,0,3.974,7.027v5.945A3.03,3.03,0,0,0,7,16h5.944a3.03,3.03,0,0,0,3.027-3.027V7.027A3.03,3.03,0,0,0,12.946,4Z"/></g></g></g></svg>